Coordinates
version=1
nRows=34
nColumns=19
inDegrees=yes

Units are S.I. units (second, meters, Newtons, ...)
If the header above contains a line with 'inDegrees', this indicates whether rotational values are in degrees (yes) or radians (no).

endheader
time	pelvis_tilt	pelvis_list	pelvis_rotation	pelvis_tx	pelvis_ty	pelvis_tz	hip_flexion_r	hip_adduction_r	hip_rotation_r	knee_angle_r	knee_angle_r_beta	ankle_angle_r	hip_flexion_l	hip_adduction_l	hip_rotation_l	knee_angle_l	knee_angle_l_beta	ankle_angle_l
     11.32000000	     -6.73414341	    -11.85485912	     -3.09560722	      2.26290137	      1.04339015	      1.00428212	     28.06710540	     16.78133980	    -15.10170341	     14.37927295	      0.25096566	     -1.63076689	    -11.25477136	    -19.42904318	    -13.69803456	     92.87629725	      1.62099718	    -22.51242765
     11.32666667	     -6.37026886	    -12.47186512	     -3.46704534	      2.26175040	      1.03778810	      1.00406114	     27.49479338	     17.19948273	    -15.86472200	     16.53764035	      0.28863627	     -1.14779783	    -10.30163463	    -20.26145055	    -13.27539761	     96.34831218	      1.68159528	    -21.94295021
     11.33333333	     -7.26200767	    -12.65661032	     -3.81437413	      2.25995195	      1.03081775	      1.00382077	     28.44714811	     17.07840326	    -16.67559924	     19.23316215	      0.33568201	     -0.30455410	     -7.44303333	    -20.61566978	    -12.08321630	    100.04058255	      1.74603755	    -21.54530922
     11.34000000	     -7.69495357	    -13.06246864	     -4.21000793	      2.25791608	      1.02427159	      1.00364030	     28.82543439	     17.23826396	    -17.25093667	     21.99171735	      0.38382788	      0.91980925	     -5.09971249	    -21.23424120	    -11.06731790	    103.54752591	      1.80724526	    -21.05120589
     11.34666667	     -8.17691567	    -13.45320961	     -4.67712651	      2.25547483	      1.01780079	      1.00353659	     29.20984722	     17.44025948	    -17.56513834	     24.84863516	      0.43369050	      2.54336206	     -2.55950233	    -21.83532039	     -9.97878002	    106.94784470	      1.86659202	    -20.49094299
     11.35333333	     -8.63869534	    -13.82452841	     -5.21530958	      2.25264899	      1.01159522	      1.00355460	     29.48529898	     17.69556850	    -17.62441362	     27.69782406	      0.48341823	      4.45893746	      0.08095631	    -22.42758932	     -8.84938957	    110.19034762	      1.92318437	    -19.81488700
     11.36000000	     -9.02984380	    -14.16991743	     -5.78109970	      2.24950782	      1.00587739	      1.00367261	     29.55080496	     17.98935907	    -17.45926282	     30.41561941	      0.53085270	      6.58860609	      2.78087138	    -22.99892803	     -7.65397306	    113.22436197	      1.97613791	    -19.02573601
     11.36666667	     -9.37049602	    -14.43526972	     -6.41450890	      2.24610471	      1.00082181	      1.00395554	     29.37201104	     18.30988687	    -16.96540798	     32.88161948	      0.57389252	      8.86250371	      5.54334443	    -23.48243202	     -6.44393644	    115.99452570	      2.02448639	    -18.10983617
     11.37333333	     -9.52022101	    -14.60047012	     -7.09303280	      2.24270401	      0.99677683	      1.00438474	     28.73911062	     18.61334737	    -16.15711203	     35.00265526	      0.61091158	     11.16348637	      8.15609264	    -23.84094476	     -5.30820134	    118.38989766	      2.06629352	    -17.09754465
     11.38000000	     -8.40170145	    -14.53610547	     -8.05131978	      2.24090684	      0.99587648	      1.00517640	     26.16477251	     18.86173842	    -14.44073816	     36.50886326	      0.63719987	     13.46811831	      8.81726973	    -23.81357638	     -5.19002379	    119.72051537	      2.08951718	    -16.10543907
     11.38666667	     -5.70359348	    -14.36377024	     -9.18956187	      2.24096221	      0.99861138	      1.00626750	     21.20179989	     18.93032342	    -11.83942501	     37.19100554	      0.64910550	     15.64631789	      7.09199885	    -23.44642910	     -6.17106429	    119.88958035	      2.09246792	    -15.01068575
     11.39333333	     -3.56471156	    -13.68186301	    -10.27664689	      2.24030125	      1.00137183	      1.00757106	     16.84819788	     18.26749525	     -9.17246806	     37.67570765	      0.65756515	     17.59399409	      6.38349680	    -22.49850818	     -6.94400315	    119.92591961	      2.09310216	    -13.80861981
     11.40000000	     -1.66492872	    -13.21080469	    -10.92895135	      2.23905704	      1.00436357	      1.00883825	     12.57189795	     17.59582914	     -6.95594435	     37.44727494	      0.65357824	     19.19697447	      6.35465555	    -21.85499663	     -7.07523894	    119.93869063	      2.09332505	    -12.39481907
     11.40666667	     -0.42523345	    -12.69141687	    -11.11439763	      2.23761250	      1.00710389	      1.00994127	      8.91908000	     16.81249486	     -5.26049958	     36.66608115	      0.63994384	     20.29479852	      7.52349785	    -21.24907612	     -6.46820994	    119.94364510	      2.09341152	    -10.93923658
     11.41333333	     -0.20105669	    -11.76855569	    -11.25233913	      2.23565488	      1.00902894	      1.01118746	      6.49998141	     15.73165973	     -3.84888121	     35.82467847	      0.62525859	     21.08129122	     10.16096083	    -20.35721774	     -5.59727148	    119.94344636	      2.09340806	     -9.50596141
     11.42000000	     -0.51491991	    -10.89560445	    -10.79144675	      2.23367282	      1.01049894	      1.01194289	      4.61212763	     14.75041804	     -3.20436354	     34.57073509	      0.60337315	     21.31839025	     13.78438888	    -19.45366878	     -3.99918701	    119.93838021	      2.09331963	     -8.13136450
     11.42666667	     -1.65450348	    -10.04841880	     -9.94221337	      2.23164478	      1.01107605	      1.01226183	      3.62489188	     13.94545045	     -3.14000652	     33.15035450	      0.57858283	     21.07693353	     18.60080777	    -18.45894924	     -1.88002590	    119.92533106	      2.09309188	     -6.94853071
     11.43333333	     -4.03315422	     -9.08040787	     -8.77874390	      2.22956088	      1.01011840	      1.01196031	      4.13942094	     13.16375350	     -3.76255987	     31.89660888	      0.55670085	     20.45356951	     25.03425999	    -17.03899284	      0.64159462	    119.89682028	      2.09259428	     -6.03818321
     11.44000000	     -6.63542803	     -8.71418824	     -7.12754283	      2.22769546	      1.00851338	      1.01092958	      4.72952280	     12.99681504	     -4.91820482	     30.34256346	      0.52957764	     19.26902790	     31.74329016	    -15.71409034	      3.65595078	    119.78462764	      2.09063615	     -5.30982279
     11.44666667	     -8.40575479	     -8.27999814	     -5.47635801	      2.22742179	      1.00864201	      1.00984383	      4.13779861	     12.65101965	     -5.96494051	     28.33009051	      0.49445336	     17.48441494	     36.87286847	    -13.97024789	      5.87262518	    118.91075262	      2.07538415	     -4.68543856
     11.45333333	     -8.90350910	     -7.06893317	     -4.05406971	      2.22946454	      1.01197424	      1.00924009	      1.85122956	     11.44767320	     -6.59716680	     25.79098208	      0.45013755	     15.06750642	     39.55164315	    -11.53817601	      6.50926834	    116.89375291	      2.04018086	     -4.17048444
     11.46000000	     -8.90962265	     -5.68060296	     -2.64121833	      2.23230998	      1.01637862	      1.00866740	     -1.09731740	     10.12626133	     -7.29358925	     22.96995907	      0.40090141	     11.96241757	     41.22364818	     -9.01347494	      6.62175586	    114.43487116	      1.99726528	     -3.59897558
     11.46666667	     -9.31585997	     -4.17731359	     -1.23978395	      2.23527778	      1.02042356	      1.00787776	     -3.49571811	      8.75140661	     -8.34114176	     20.33910053	      0.35498427	      8.38424306	     43.11528490	     -6.34584673	      6.53231195	    111.75807903	      1.95054644	     -3.20433018
     11.47333333	    -10.10548515	     -2.68165247	      0.11994455	      2.23827513	      1.02406924	      1.00704094	     -5.32024759	      7.41595008	     -9.78499265	     17.99768325	      0.31411883	      4.39696606	     45.20748882	     -3.74071638	      6.27074638	    108.88414286	      1.90038680	     -2.87112005
     11.48000000	    -10.61220184	     -1.12083115	      1.22455017	      2.24145363	      1.02827249	      1.00646721	     -7.36865541	      6.03845865	    -11.21960259	     15.79208343	      0.27562385	      0.02805309	     46.67040490	     -1.35991105	      5.58892383	    105.72580957	      1.84526348	     -2.50718483
     11.48666667	    -11.55474920	      0.29657599	      2.26267109	      2.24443217	      1.03186626	      1.00590345	     -8.65218606	      4.75896278	    -13.17742979	     14.13974774	      0.24678515	     -4.48101651	     48.47817987	      0.79768411	      4.85845882	    102.43794875	      1.78787948	     -2.19359483
     11.49333333	    -12.31586918	      1.67686681	      3.03609723	      2.24744645	      1.03576696	      1.00571538	     -9.92477929	      3.47597381	    -15.26554677	     12.85561983	      0.22437289	     -9.07826233	     49.85313947	      2.56939091	      3.81115775	     98.91274682	      1.72635310	     -1.81047836
     11.50000000	    -12.96917392	      2.97227281	      3.52833397	      2.25041538	      1.03973153	      1.00596395	    -11.04589379	      2.19690797	    -17.55185399	     12.05952142	      0.21047835	    -13.57654972	     50.91957908	      3.92455896	      2.53038201	     95.20892685	      1.66170925	     -1.37339090
     11.50666667	    -13.69080639	      4.10811635	      3.87032008	      2.25315583	      1.04345683	      1.00641684	    -11.76358786	      0.94432812	    -20.23367028	     11.89924006	      0.20768092	    -17.78822681	     51.92833713	      4.92877513	      1.15831522	     91.36043838	      1.59454046	     -0.89848527
     11.51333333	    -14.31748956	      5.13646073	      4.01824449	      2.25578710	      1.04704663	      1.00715935	    -12.32250468	     -0.33097725	    -23.11494597	     12.27667302	      0.21426837	    -21.55709709	     52.67705976	      5.56565845	     -0.39733532	     87.36008018	      1.52472103	     -0.39481319
     11.52000000	    -14.63996466	      6.15132888	      3.92029584	      2.25827183	      1.05074530	      1.00816023	    -12.98897692	     -1.74400237	    -26.07179219	     13.15015829	      0.22951356	    -24.78415062	     52.92692059	      5.91343204	     -2.20709438	     83.18937729	      1.45192854	      0.15800735
     11.52666667	    -14.51628989	      7.18701751	      3.54356738	      2.26067935	      1.05460082	      1.00945986	    -13.99191224	     -3.29774690	    -28.87648173	     14.37653131	      0.25091781	    -27.35929128	     52.51900654	      5.97629303	     -4.35385703	     78.85250835	      1.37623589	      0.75080747
     11.53333333	    -14.35209507	      8.15994489	      3.09125336	      2.26286139	      1.05802093	      1.01058777	    -14.89135789	     -4.93836107	    -31.54155300	     16.04961596	      0.28011864	    -29.14505300	     51.93516544	      5.94077586	     -6.65781633	     74.39352055	      1.29841188	      1.28379950
     11.54000000	    -14.28476789	      9.05396045	      2.67794845	      2.26478989	      1.06082121	      1.01124475	    -15.59904850	     -6.60149810	    -33.87597766	     18.06739035	      0.31533545	    -30.13309816	     51.34114619	      5.96165451	     -8.98134621	     69.80853861	      1.21838884	      1.65922122
